<?xml version="1.0" standalone="no"?>
<!DOCTYPE svg PUBLIC "-//W3C//DTD SVG 20010904//EN"
 "http://www.w3.org/TR/2001/REC-SVG-20010904/DTD/svg10.dtd">
<svg version="1.0" xmlns="http://www.w3.org/2000/svg"
 width="1024.000000pt" height="1024.000000pt" viewBox="0 0 1024.000000 1024.000000"
 preserveAspectRatio="xMidYMid meet">
<metadata>
Created by potrace 1.14, written by Peter Selinger 2001-2017
</metadata>
<g transform="translate(0.000000,1024.000000) scale(0.100000,-0.100000)"
fill="#000000" stroke="none">
<path d="M1130 10229 c-305 -39 -558 -166 -768 -383 -175 -181 -284 -389 -339
-646 -17 -81 -18 -254 -18 -4085 0 -3868 1 -4003 19 -4085 57 -262 167 -463
355 -651 157 -157 300 -246 504 -314 212 -71 -114 -66 4292 -62 l3970 3 85 21
c265 67 447 169 631 352 157 157 246 300 314 504 71 212 66 -113 63 4287 -3
3774 -4 3969 -21 4040 -66 273 -178 477 -359 657 -180 177 -377 285 -633 346
l-90 22 -3970 1 c-2183 1 -3999 -2 -4035 -7z m7512 -1445 c50 -17 108 -67 135
-117 17 -30 18 -148 21 -2032 1 -1099 -2 -1995 -6 -1990 -5 6 -38 46 -74 90
-77 92 -234 248 -328 325 -76 63 -246 176 -330 221 l-60 32 0 1642 c0 1424 2
1648 15 1684 25 71 76 123 144 147 56 20 423 19 483 -2z m-5607 -668 c114 -33
172 -66 234 -132 111 -118 135 -232 128 -604 -5 -277 -11 -312 -67 -426 -45
-92 -126 -158 -242 -197 -15 -5 -9 -21 44 -114 33 -59 114 -201 179 -315 l117
-208 -281 0 -282 0 -164 300 -164 300 -204 0 -203 0 0 -300 0 -300 -260 0
-260 0 0 1003 c0 552 3 1007 7 1011 4 4 311 6 683 4 605 -4 681 -6 735 -22z
m2153 -183 l2 -203 -477 0 c-527 0 -520 1 -567 -63 -18 -25 -21 -43 -21 -135
0 -116 9 -142 63 -179 25 -16 62 -19 407 -24 326 -5 388 -8 435 -23 173 -56
259 -147 307 -326 25 -94 25 -446 0 -540 -36 -134 -95 -219 -192 -276 -119
-69 -277 -84 -710 -65 -286 12 -692 37 -762 47 l-43 5 0 196 0 195 53 -6 c115
-13 772 -37 923 -34 145 3 164 5 184 23 42 37 50 75 50 230 l0 145 -389 0
c-429 0 -488 6 -604 58 -114 52 -192 155 -228 302 -19 76 -19 434 0 510 45
178 131 277 289 330 102 34 179 38 742 36 l535 -1 3 -202z m1982 2 l0 -205
-492 0 c-474 0 -494 -1 -526 -20 -18 -11 -41 -34 -52 -52 -19 -32 -20 -52 -20
-551 0 -568 -1 -561 60 -592 24 -12 76 -15 287 -15 142 0 288 3 326 7 l67 6 0
208 0 209 -185 0 -185 0 0 170 0 170 445 0 445 0 0 -554 0 -553 -57 -7 c-323
-36 -716 -58 -1033 -60 -241 -1 -295 2 -347 16 -189 53 -289 157 -328 346 -22
106 -22 1193 0 1296 17 81 60 177 101 225 66 79 188 134 333 151 36 4 312 8
614 9 l547 1 0 -205z m100 -2838 c450 -91 822 -303 1089 -623 373 -447 515
-1007 401 -1574 -59 -289 -221 -611 -423 -839 -270 -305 -654 -520 -1060 -594
l-122 -22 -2035 0 c-1936 0 -2040 1 -2140 19 -389 68 -731 245 -1000 515 -274
275 -447 611 -516 1001 -26 145 -26 462 0 605 70 388 246 727 515 995 306 304
694 487 1131 533 19 2 944 3 2055 2 1861 -1 2027 -2 2105 -18z"/>
<path d="M2130 7430 l0 -300 318 0 c349 0 361 2 406 63 20 27 21 42 21 230 0
220 -4 241 -58 281 -27 20 -42 21 -358 24 l-329 3 0 -301z"/>
<path d="M3125 4309 c-140 -20 -327 -97 -450 -184 -90 -63 -233 -219 -286
-311 -184 -315 -197 -678 -37 -999 58 -116 113 -189 220 -290 137 -130 274
-206 472 -258 l81 -22 1995 0 1995 0 89 24 c266 70 479 221 625 442 104 157
159 330 168 524 8 187 -25 344 -109 510 -59 116 -114 189 -220 290 -134 128
-266 201 -466 258 l-77 22 -1970 1 c-1083 1 -1997 -2 -2030 -7z"/>
</g>
</svg>
